<svg xmlns="http://www.w3.org/2000/svg" width="27" height="24" viewBox="0 0 27 24" fill="none">
<path fill-rule="evenodd" clip-rule="evenodd" d="M0 1.93333C0 1.42058 0.199773 0.928831 0.555371 0.566261C0.910968 0.20369 1.39326 0 1.89615 0H24.65C25.1529 0 25.6352 0.20369 25.9908 0.566261C26.3464 0.928831 26.5462 1.42058 26.5462 1.93333C26.5462 2.44609 26.3464 2.93784 25.9908 3.30041C25.6352 3.66298 25.1529 3.86667 24.65 3.86667H1.89615C1.39326 3.86667 0.910968 3.66298 0.555371 3.30041C0.199773 2.93784 0 2.44609 0 1.93333Z" fill="#656060"/>
<path fill-rule="evenodd" clip-rule="evenodd" d="M0 11.6C0 11.0873 0.199773 10.5955 0.555371 10.2329C0.910968 9.87038 1.39326 9.66669 1.89615 9.66669H24.65C25.1529 9.66669 25.6352 9.87038 25.9908 10.2329C26.3464 10.5955 26.5462 11.0873 26.5462 11.6C26.5462 12.1128 26.3464 12.6045 25.9908 12.9671C25.6352 13.3297 25.1529 13.5334 24.65 13.5334H1.89615C1.39326 13.5334 0.910968 13.3297 0.555371 12.9671C0.199773 12.6045 0 12.1128 0 11.6Z" fill="#656060"/>
<path fill-rule="evenodd" clip-rule="evenodd" d="M0 21.2666C0 20.7539 0.199773 20.2621 0.555371 19.8996C0.910968 19.537 1.39326 19.3333 1.89615 19.3333H24.65C25.1529 19.3333 25.6352 19.537 25.9908 19.8996C26.3464 20.2621 26.5462 20.7539 26.5462 21.2666C26.5462 21.7794 26.3464 22.2712 25.9908 22.6337C25.6352 22.9963 25.1529 23.2 24.65 23.2H1.89615C1.39326 23.2 0.910968 22.9963 0.555371 22.6337C0.199773 22.2712 0 21.7794 0 21.2666Z" fill="#656060"/>
</svg>