<svg width="43" height="43" viewBox="0 0 43 43" fill="none" xmlns="http://www.w3.org/2000/svg">
<path d="M38.4476 32.9234L38.0497 32.5722C36.9208 31.5664 35.9326 30.4129 35.112 29.143C34.2157 27.3903 33.6785 25.4764 33.532 23.5133V17.7316C33.5397 14.6483 32.4213 11.6683 30.3868 9.35146C28.3523 7.03465 25.5418 5.54051 22.4834 5.14975V3.63994C22.4834 3.22554 22.3188 2.82812 22.0257 2.53509C21.7327 2.24207 21.3353 2.07745 20.9209 2.07745C20.5065 2.07745 20.1091 2.24207 19.816 2.53509C19.523 2.82812 19.3584 3.22554 19.3584 3.63994V5.17316C16.3274 5.59208 13.5508 7.09526 11.5431 9.40428C9.53533 11.7133 8.4324 14.6717 8.43857 17.7316V23.5133C8.29198 25.4764 7.75479 27.3903 6.85853 29.143C6.05198 30.4097 5.07975 31.563 3.96764 32.5722L3.5697 32.9234V36.2239H38.4476V32.9234Z" fill="#656060"/>
<path d="M17.9306 37.4528C18.0332 38.1947 18.4009 38.8743 18.9656 39.3663C19.5303 39.8583 20.2539 40.1293 21.0029 40.1293C21.7519 40.1293 22.4755 39.8583 23.0402 39.3663C23.6049 38.8743 23.9726 38.1947 24.0752 37.4528H17.9306Z" fill="#656060"/>
</svg>
