<svg width="26" height="26" viewBox="0 0 26 26" fill="none" xmlns="http://www.w3.org/2000/svg">
<path d="M23.8334 9.32537V18.1459C23.8335 19.0452 23.4894 19.9104 22.8718 20.5641C22.2541 21.2178 21.4098 21.6104 20.5119 21.6613L20.3126 21.6667H5.68758C4.78827 21.6668 3.92302 21.3227 3.26933 20.7051C2.61565 20.0874 2.22308 19.2431 2.17216 18.3452L2.16675 18.1459V9.32537L12.6231 14.8027C12.7394 14.8636 12.8688 14.8955 13.0001 14.8955C13.1314 14.8955 13.2608 14.8636 13.3771 14.8027L23.8334 9.32537ZM5.68758 4.33337H20.3126C21.1853 4.33327 22.0269 4.65729 22.6743 5.24258C23.3216 5.82787 23.7285 6.63273 23.8161 7.50104L13.0001 13.1669L2.18408 7.50104C2.26807 6.66721 2.64672 5.89068 3.25198 5.31104C3.85724 4.7314 4.6494 4.38666 5.48608 4.33879L5.68758 4.33337H20.3126H5.68758Z" fill="#626060"/>
</svg>
