<svg width="29" height="29" viewBox="0 0 29 29" fill="none" xmlns="http://www.w3.org/2000/svg">
<g id="bx:bxs-lock-alt">
<path id="Vector" d="M24.1663 14.4998C24.1663 13.167 23.0825 12.0832 21.7497 12.0832H20.5413V8.45817C20.5413 5.1268 17.831 2.4165 14.4997 2.4165C11.1683 2.4165 8.45801 5.1268 8.45801 8.45817V12.0832H7.24967C5.91688 12.0832 4.83301 13.167 4.83301 14.4998V24.1665C4.83301 25.4993 5.91688 26.5832 7.24967 26.5832H21.7497C23.0825 26.5832 24.1663 25.4993 24.1663 24.1665V14.4998ZM10.8747 8.45817C10.8747 6.45959 12.5011 4.83317 14.4997 4.83317C16.4983 4.83317 18.1247 6.45959 18.1247 8.45817V12.0832H10.8747V8.45817Z" fill="#626060"/>
</g>
</svg>
