<svg xmlns="http://www.w3.org/2000/svg" width="49" height="49" viewBox="0 0 49 49" fill="none">
  <g filter="url(#filter0_d_548_13691)">
    <path d="M6 33.7197V39.5463C6 40.083 6.42167 40.5047 6.95833 40.5047H12.785C13.0342 40.5047 13.2833 40.4088 13.4558 40.2172L34.3858 19.3063L27.1983 12.1189L6.2875 33.0297C6.09583 33.2213 6 33.4513 6 33.7197ZM39.9442 13.748C40.1218 13.5707 40.2628 13.3601 40.359 13.1282C40.4552 12.8963 40.5047 12.6478 40.5047 12.3968C40.5047 12.1457 40.4552 11.8972 40.359 11.6653C40.2628 11.4335 40.1218 11.2228 39.9442 11.0455L35.4592 6.56052C35.2819 6.38284 35.0712 6.24187 34.8394 6.14569C34.6075 6.04951 34.3589 6 34.1079 6C33.8569 6 33.6083 6.04951 33.3765 6.14569C33.1446 6.24187 32.934 6.38284 32.7567 6.56052L29.2492 10.068L36.4367 17.2555L39.9442 13.748Z" fill="#616467"/>
  </g>
  <defs>
    <filter id="filter0_d_548_13691" x="0" y="0" width="48.5049" height="48.5047" filterUnits="userSpaceOnUse" color-interpolation-filters="sRGB">
      <feFlood flood-opacity="0" result="BackgroundImageFix"/>
      <feColorMatrix in="SourceAlpha" type="matrix" values="0 0 0 0 0 0 0 0 0 0 0 0 0 0 0 0 0 0 127 0" result="hardAlpha"/>
      <feOffset dx="1" dy="1"/>
      <feGaussianBlur stdDeviation="3.5"/>
      <feColorMatrix type="matrix" values="0 0 0 0 0 0 0 0 0 0 0 0 0 0 0 0 0 0 0.25 0"/>
      <feBlend mode="normal" in2="BackgroundImageFix" result="effect1_dropShadow_548_13691"/>
      <feBlend mode="normal" in="SourceGraphic" in2="effect1_dropShadow_548_13691" result="shape"/>
    </filter>
  </defs>
</svg>